<?xml version="1.0" encoding="utf-8"?>
<!-- Generator: Adobe Illustrator 24.3.0, SVG Export Plug-In . SVG Version: 6.00 Build 0)  -->
<svg version="1.1" id="Ebene_1" xmlns="http://www.w3.org/2000/svg" xmlns:xlink="http://www.w3.org/1999/xlink" x="0px" y="0px"
	 viewBox="0 0 841.89 595.28" style="enable-background:new 0 0 841.89 595.28;" xml:space="preserve">
<style type="text/css">
	.st0{fill:none;}
	.st1{fill:#88B0D9;}
	.st2{fill:#575756;}
	.st3{fill:#333333;}
</style>
<g>
	<g>
		<path class="st0" d="M416.24,268.84c-0.22,0.63-0.33,1.33-0.33,2.11c0,1.63,0.58,2.93,1.75,3.92c1.17,0.98,3.1,1.47,5.8,1.47
			c2.78,0,4.83-0.56,6.16-1.67c1.33-1.11,2-2.44,2-4c0-1.33-0.44-2.36-1.33-3.08c-0.89-0.72-2.5-1.08-4.83-1.08h-2.67
			c-0.78,0-1.44-0.03-2-0.08c-0.56-0.05-1.04-0.12-1.44-0.19c-0.44-0.11-0.82-0.22-1.11-0.33c-0.45,0.41-0.83,0.87-1.17,1.39
			C416.74,267.69,416.46,268.21,416.24,268.84z"/>
		<g>
			<path class="st1" d="M377.2,258.68c-0.04-0.59-0.19-1.01-0.44-1.25c-0.26-0.24-0.61-0.36-1.06-0.36c-0.41,0-0.75,0.11-1.03,0.34
				c-0.28,0.22-0.51,0.65-0.69,1.29l-1.05,4.26h-13.22V249.3h9.94l0.67,2.33c0.22,0.59,0.45,1.02,0.69,1.28
				c0.24,0.26,0.58,0.39,1.03,0.39c0.44,0,0.79-0.14,1.03-0.42c0.24-0.28,0.36-0.69,0.36-1.25v-8.05c0-0.55-0.12-0.97-0.36-1.25
				c-0.24-0.28-0.58-0.42-1.03-0.42c-0.44,0-0.79,0.12-1.03,0.36c-0.24,0.24-0.47,0.68-0.69,1.31l-0.67,2.28h-9.94v-12.94h12.66
				l1,3.98c0.18,0.64,0.42,1.07,0.69,1.29c0.28,0.22,0.62,0.34,1.03,0.34c0.41,0,0.75-0.12,1.03-0.36c0.28-0.24,0.43-0.66,0.47-1.25
				c0.04-0.7,0.05-1.28,0.05-1.72c0-0.44,0-0.92,0-1.44v-0.67c0-0.92-0.04-1.61-0.11-2.06c-0.07-0.44-0.24-0.8-0.5-1.05
				c-0.22-0.22-0.5-0.4-0.83-0.53c-0.33-0.13-0.78-0.19-1.33-0.19h-22.44c-0.55,0-0.96,0.13-1.22,0.38
				c-0.26,0.26-0.39,0.57-0.39,0.93c0,0.47,0.12,0.85,0.36,1.12c0.24,0.27,0.69,0.5,1.36,0.68l3.05,0.71v29.71l-3.28,0.77
				c-0.59,0.15-0.99,0.34-1.19,0.57c-0.2,0.24-0.31,0.56-0.31,0.96c0,0.47,0.15,0.85,0.44,1.12c0.3,0.27,0.74,0.41,1.33,0.41h22.88
				c0.55,0,1-0.06,1.33-0.19c0.33-0.13,0.61-0.31,0.83-0.53c0.26-0.26,0.43-0.61,0.5-1.05c0.07-0.44,0.11-1.13,0.11-2.05v-0.94
				c0-0.26,0-0.51,0-0.75c0-0.24,0-0.48,0-0.72c0-0.24-0.01-0.5-0.03-0.78C377.21,259.32,377.2,259.01,377.2,258.68z"/>
		</g>
		<g>
			<g>
				<path class="st0" d="M417.65,274.87c-1.17-0.98-1.75-2.29-1.75-3.92c0-0.78,0.11-1.48,0.33-2.11c0.22-0.63,0.5-1.15,0.83-1.55
					c0.33-0.52,0.72-0.98,1.17-1.39c0.3,0.11,0.67,0.22,1.11,0.33c0.41,0.07,0.89,0.14,1.44,0.19c0.55,0.06,1.22,0.08,2,0.08h2.67
					c2.33,0,3.94,0.36,4.83,1.08c0.89,0.72,1.33,1.75,1.33,3.08c0,1.55-0.67,2.89-2,4c-1.33,1.11-3.39,1.67-6.16,1.67
					C420.75,276.34,418.82,275.85,417.65,274.87z"/>
			</g>
		</g>
	</g>
</g>
<path class="st1" d="M435.17,238.55c0.45-0.31,0.8-0.63,1.06-0.95c0.26-0.31,0.39-0.69,0.39-1.14c0.04-0.56-0.15-1.02-0.55-1.39
	c-0.41-0.37-0.93-0.55-1.55-0.55c-0.85,0-1.72,0.46-2.61,1.39c-0.89,0.93-1.87,2.15-2.94,3.66c-0.33-0.11-0.72-0.24-1.17-0.39
	c-0.41-0.07-0.91-0.16-1.5-0.25c-0.59-0.09-1.24-0.14-1.94-0.14c-1.82,0-3.44,0.26-4.89,0.78c-1.44,0.52-2.66,1.22-3.64,2.11
	c-0.98,0.89-1.73,1.94-2.25,3.17c-0.52,1.22-0.78,2.55-0.78,4c0,1.67,0.35,3.1,1.05,4.3c0.7,1.2,1.57,2.12,2.61,2.75
	c-0.11,0.07-0.33,0.24-0.67,0.5c-0.33,0.26-0.67,0.6-1,1.03c-0.33,0.43-0.63,0.93-0.89,1.5c-0.26,0.57-0.39,1.23-0.39,1.97
	c0,0.92,0.2,1.71,0.61,2.36s0.87,1.16,1.39,1.53c-0.15,0.07-0.47,0.28-0.97,0.61c-0.5,0.33-1.01,0.81-1.53,1.42
	c-0.52,0.61-0.99,1.35-1.42,2.22c-0.43,0.87-0.64,1.9-0.64,3.08c0,1.07,0.22,2.09,0.67,3.05c0.44,0.96,1.14,1.8,2.08,2.5
	s2.15,1.26,3.61,1.67c1.46,0.41,3.21,0.61,5.25,0.61c2.26,0,4.27-0.29,6.02-0.86c1.76-0.57,3.23-1.32,4.42-2.25
	c1.18-0.92,2.08-1.99,2.69-3.19c0.61-1.2,0.92-2.43,0.92-3.69c0-2.15-0.78-3.89-2.33-5.22c-1.55-1.33-4.13-2-7.72-2h-2.78
	c-1.19,0-2.17-0.07-2.94-0.22c-0.78-0.15-1.4-0.35-1.86-0.61c-0.46-0.26-0.78-0.58-0.94-0.97c-0.17-0.39-0.25-0.81-0.25-1.25
	s0.05-0.82,0.14-1.14c0.09-0.31,0.23-0.58,0.42-0.81c0.15-0.26,0.33-0.48,0.56-0.67c0.33,0.07,0.72,0.17,1.17,0.28
	c0.37,0.07,0.81,0.14,1.31,0.19c0.5,0.06,1.05,0.08,1.64,0.08c1.81,0,3.44-0.26,4.89-0.78c1.44-0.52,2.66-1.22,3.64-2.11
	c0.98-0.89,1.73-1.94,2.25-3.16c0.52-1.22,0.78-2.56,0.78-4c0-1.52-0.28-2.81-0.83-3.89c-0.55-1.07-1.22-1.92-2-2.56
	c0.67-0.63,1.3-1.14,1.89-1.53C434.21,239.22,434.73,238.86,435.17,238.55z M418.24,265.9c0.3,0.11,0.67,0.22,1.11,0.33
	c0.41,0.07,0.89,0.14,1.44,0.19c0.55,0.06,1.22,0.08,2,0.08h2.67c2.33,0,3.94,0.36,4.83,1.08c0.89,0.72,1.33,1.75,1.33,3.08
	c0,1.55-0.67,2.89-2,4c-1.33,1.11-3.39,1.67-6.16,1.67c-2.7,0-4.64-0.49-5.8-1.47c-1.17-0.98-1.75-2.29-1.75-3.92
	c0-0.78,0.11-1.48,0.33-2.11c0.22-0.63,0.5-1.15,0.83-1.55C417.4,266.77,417.79,266.31,418.24,265.9z M427.91,252.49
	c-1.03,1.02-2.43,1.53-4.2,1.53c-1.81,0-3.24-0.54-4.31-1.61c-1.07-1.07-1.6-2.5-1.6-4.28c0-1.78,0.52-3.17,1.55-4.19
	c1.03-1.02,2.43-1.53,4.2-1.53c1.81,0,3.24,0.54,4.31,1.61c1.07,1.07,1.6,2.5,1.6,4.28S428.94,251.47,427.91,252.49z"/>
<path class="st1" d="M406.3,238.55c0.45-0.31,0.8-0.63,1.06-0.95c0.26-0.31,0.39-0.69,0.39-1.14c0.04-0.56-0.15-1.02-0.55-1.39
	c-0.41-0.37-0.93-0.55-1.55-0.55c-0.85,0-1.72,0.46-2.61,1.39c-0.89,0.93-1.87,2.15-2.94,3.66c-0.33-0.11-0.72-0.24-1.17-0.39
	c-0.41-0.07-0.91-0.16-1.5-0.25c-0.59-0.09-1.24-0.14-1.94-0.14c-1.82,0-3.44,0.26-4.89,0.78c-1.44,0.52-2.66,1.22-3.64,2.11
	c-0.98,0.89-1.73,1.94-2.25,3.17c-0.52,1.22-0.78,2.55-0.78,4c0,1.67,0.35,3.1,1.05,4.3c0.7,1.2,1.57,2.12,2.61,2.75
	c-0.11,0.07-0.33,0.24-0.67,0.5c-0.33,0.26-0.67,0.6-1,1.03c-0.33,0.43-0.63,0.93-0.89,1.5c-0.26,0.57-0.39,1.23-0.39,1.97
	c0,0.92,0.2,1.71,0.61,2.36c0.41,0.65,0.87,1.16,1.39,1.53c-0.15,0.07-0.47,0.28-0.97,0.61c-0.5,0.33-1.01,0.81-1.53,1.42
	c-0.52,0.61-0.99,1.35-1.42,2.22c-0.43,0.87-0.64,1.9-0.64,3.08c0,1.07,0.22,2.09,0.67,3.05c0.39,0.84,1,1.57,1.78,2.21
	c0.11,0.09,0.19,0.2,0.31,0.29c0.94,0.7,2.15,1.26,3.61,1.67c1.46,0.41,3.21,0.61,5.25,0.61c2.26,0,4.27-0.29,6.02-0.86
	c0.32-0.1,0.58-0.25,0.89-0.36c1.35-0.52,2.56-1.13,3.53-1.89c1.18-0.92,2.08-1.99,2.69-3.19c0.61-1.2,0.92-2.43,0.92-3.69
	c0-2.15-0.78-3.89-2.33-5.22c-1.55-1.33-4.13-2-7.72-2h-2.78c-1.19,0-2.17-0.07-2.94-0.22c-0.78-0.15-1.4-0.35-1.86-0.61
	c-0.46-0.26-0.78-0.58-0.94-0.97c-0.17-0.39-0.25-0.81-0.25-1.25s0.05-0.82,0.14-1.14c0.09-0.31,0.23-0.58,0.42-0.81
	c0.15-0.26,0.33-0.48,0.56-0.67c0.33,0.07,0.72,0.17,1.17,0.28c0.37,0.07,0.81,0.14,1.31,0.19c0.5,0.06,1.05,0.08,1.64,0.08
	c1.81,0,3.44-0.26,4.89-0.78c1.44-0.52,2.66-1.22,3.64-2.11c0.98-0.89,1.73-1.94,2.25-3.16c0.52-1.22,0.78-2.56,0.78-4
	c0-1.52-0.28-2.81-0.83-3.89c-0.55-1.07-1.22-1.92-2-2.56c0.67-0.63,1.3-1.14,1.89-1.53C405.33,239.22,405.85,238.86,406.3,238.55z
	 M389.36,265.9c0.3,0.11,0.67,0.22,1.11,0.33c0.41,0.07,0.89,0.14,1.44,0.19c0.55,0.06,1.22,0.08,2,0.08h2.67
	c2.33,0,3.94,0.36,4.83,1.08c0.89,0.72,1.33,1.75,1.33,3.08c0,1.55-0.67,2.89-2,4s-3.39,1.67-6.16,1.67c-2.7,0-4.64-0.49-5.8-1.47
	c-1.17-0.98-1.75-2.29-1.75-3.92c0-0.78,0.11-1.48,0.33-2.11c0.22-0.63,0.5-1.15,0.83-1.55
	C388.53,266.77,388.92,266.31,389.36,265.9z M399.03,252.49c-1.03,1.02-2.43,1.53-4.2,1.53c-1.81,0-3.24-0.54-4.31-1.61
	c-1.07-1.07-1.6-2.5-1.6-4.28c0-1.78,0.52-3.17,1.55-4.19c1.03-1.02,2.43-1.53,4.2-1.53c1.81,0,3.24,0.54,4.31,1.61
	c1.07,1.07,1.6,2.5,1.6,4.28C400.58,250.07,400.06,251.47,399.03,252.49z"/>
<g>
	<path class="st1" d="M453.05,238.74c-1.81,0-3.51,0.35-5.08,1.06c-1.57,0.7-2.94,1.68-4.11,2.94c-1.17,1.26-2.08,2.8-2.75,4.64
		c-0.67,1.83-1,3.9-1,6.19c0,2.19,0.31,4.12,0.92,5.8c0.61,1.69,1.47,3.1,2.58,4.25c1.11,1.15,2.47,2.03,4.08,2.64
		s3.41,0.92,5.41,0.92c2.26,0,4.12-0.25,5.58-0.75c1.46-0.5,2.43-0.99,2.92-1.47c0.22-0.22,0.38-0.43,0.47-0.64
		c0.09-0.2,0.14-0.43,0.14-0.69c0-0.41-0.11-0.73-0.33-0.97c-0.22-0.24-0.55-0.36-1-0.36c-0.26,0-0.55,0.06-0.89,0.17
		c-0.33,0.11-0.74,0.24-1.22,0.39c-0.48,0.15-1.05,0.28-1.72,0.39c-0.66,0.11-1.49,0.17-2.49,0.17c-2.84,0-5.08-0.85-6.72-2.55
		c-1.64-1.7-2.52-4.22-2.63-7.55h15.06c1,0,1.75-0.27,2.27-0.81c0.52-0.54,0.78-1.36,0.78-2.47c0-3.63-0.92-6.41-2.78-8.36
		C458.7,239.72,456.2,238.74,453.05,238.74z M484.38,238.63c-0.78,0-1.53,0.13-2.25,0.39c-0.72,0.26-1.4,0.61-2.03,1.05
		c-0.63,0.44-1.2,0.98-1.72,1.61c-0.52,0.63-0.96,1.33-1.33,2.11l-0.11-0.06v-1.67c0-1.15-0.21-1.94-0.64-2.39
		c-0.43-0.44-1.23-0.67-2.42-0.67c-0.78,0-1.59,0.05-2.44,0.17c-0.85,0.11-1.59,0.24-2.22,0.39c-0.63,0.19-1.05,0.4-1.28,0.64
		c-0.22,0.24-0.33,0.58-0.33,1.03c0,0.41,0.1,0.72,0.31,0.94c0.2,0.22,0.6,0.39,1.19,0.5l3.28,0.5v19.6l-3.11,0.78
		c-0.63,0.15-1.04,0.33-1.22,0.56c-0.19,0.22-0.28,0.54-0.28,0.94c0,0.48,0.15,0.86,0.44,1.14c0.3,0.28,0.74,0.42,1.33,0.42h10.94
		c0.59,0,1.05-0.14,1.36-0.42c0.31-0.28,0.47-0.66,0.47-1.14c0-0.41-0.1-0.72-0.31-0.94c-0.2-0.22-0.6-0.41-1.19-0.56l-3.44-0.78
		v-15.83c0.78-1.15,1.6-1.97,2.47-2.47c0.87-0.5,1.75-0.75,2.64-0.75c0.26,0,0.48,0.04,0.67,0.11s0.36,0.14,0.53,0.19
		c0.17,0.06,0.33,0.11,0.5,0.17c0.17,0.06,0.36,0.08,0.58,0.08c0.26,0,0.51-0.07,0.75-0.22c0.24-0.15,0.47-0.36,0.69-0.64
		c0.22-0.28,0.4-0.63,0.53-1.05c0.13-0.42,0.19-0.9,0.19-1.42c0-0.7-0.2-1.27-0.61-1.69C485.91,238.85,485.26,238.63,484.38,238.63z
		 M505.5,263.01c-0.2-0.22-0.49-0.33-0.86-0.33c-0.37,0-0.8,0.07-1.28,0.22c-0.48,0.15-1.13,0.22-1.94,0.22
		c-1.19,0-2.05-0.35-2.58-1.05c-0.54-0.7-0.81-1.94-0.81-3.71V242.8h5.33c0.74,0,1.29-0.18,1.67-0.53c0.37-0.35,0.56-0.84,0.56-1.47
		c0-1-0.61-1.5-1.83-1.5h-5.72v-5.78c0-0.52-0.14-0.92-0.42-1.19c-0.28-0.28-0.69-0.42-1.25-0.42c-0.67,0-1.19,0.22-1.55,0.67
		c-0.37,0.44-0.67,1.28-0.89,2.5l-0.83,4.22h-2.28c-0.74,0-1.3,0.18-1.67,0.53c-0.37,0.35-0.56,0.82-0.56,1.42
		c0,1.04,0.61,1.55,1.83,1.55h2.67v17.1c0,2.18,0.48,3.9,1.44,5.14c0.96,1.24,2.65,1.86,5.05,1.86c1.74,0,3.05-0.21,3.92-0.64
		c0.87-0.42,1.42-0.75,1.64-0.97c0.22-0.22,0.39-0.44,0.5-0.67c0.11-0.22,0.17-0.46,0.17-0.72
		C505.81,263.53,505.71,263.23,505.5,263.01z M445.39,250.18c0.26-2.39,1-4.29,2.23-5.71c1.23-1.41,2.8-2.12,4.71-2.12
		c1.69,0,3.1,0.64,4.24,1.93c1.14,1.29,1.74,3.25,1.82,5.9H445.39z"/>
</g>
<g>
	<path class="st1" d="M216.73,246.63v-0.05c2.07-0.56,3.68-1.54,4.84-2.94c1.16-1.41,1.74-3.2,1.74-5.39c0-1.33-0.24-2.54-0.72-3.64
		c-0.48-1.09-1.25-2.04-2.3-2.83c-1.05-0.8-2.4-1.42-4.05-1.86c-1.65-0.44-3.65-0.67-6.01-0.67h-12.97c-0.55,0-0.96,0.13-1.22,0.38
		c-0.26,0.26-0.39,0.57-0.39,0.93c0,0.47,0.12,0.85,0.36,1.12c0.24,0.27,0.69,0.5,1.36,0.68l3.05,0.71v29.71l-3.28,0.77
		c-0.59,0.15-0.99,0.34-1.19,0.57c-0.2,0.24-0.31,0.56-0.31,0.96c0,0.47,0.15,0.85,0.44,1.12c0.3,0.27,0.74,0.41,1.33,0.41h11.92
		c2.62,0,4.91-0.3,6.87-0.89c1.96-0.59,3.58-1.4,4.85-2.42c1.27-1.02,2.24-2.22,2.88-3.61c0.65-1.39,0.97-2.88,0.97-4.47
		c0-2.37-0.72-4.31-2.16-5.83C221.33,247.89,219.32,246.96,216.73,246.63z M205.55,232.86h4c3.07,0,5.24,0.55,6.52,1.65
		c1.28,1.1,1.92,2.65,1.92,4.66c0,1.97-0.67,3.53-2,4.68c-1.33,1.15-3.48,1.73-6.44,1.73h-4V232.86z M217.42,261.12
		c-1.46,1.26-3.88,1.89-7.27,1.89h-4.59v-13.99h4.53c1.77,0,3.25,0.16,4.45,0.47c1.2,0.32,2.18,0.76,2.93,1.34
		c0.76,0.58,1.3,1.3,1.63,2.18c0.33,0.87,0.5,1.85,0.5,2.93C219.6,258.12,218.87,259.85,217.42,261.12z"/>
</g>
<g>
	<path class="st1" d="M245.93,238.63c-0.78,0-1.53,0.13-2.25,0.39c-0.72,0.26-1.4,0.61-2.03,1.05c-0.63,0.44-1.2,0.98-1.72,1.61
		c-0.52,0.63-0.96,1.33-1.33,2.11l-0.11-0.06v-1.67c0-1.15-0.21-1.94-0.64-2.39c-0.43-0.44-1.23-0.67-2.42-0.67
		c-0.78,0-1.59,0.05-2.44,0.17c-0.85,0.11-1.59,0.24-2.22,0.39c-0.63,0.19-1.05,0.4-1.28,0.64c-0.22,0.24-0.33,0.58-0.33,1.03
		c0,0.41,0.1,0.72,0.31,0.94c0.2,0.22,0.6,0.39,1.19,0.5l3.28,0.5v19.6l-3.11,0.78c-0.63,0.15-1.04,0.33-1.22,0.56
		c-0.19,0.22-0.28,0.54-0.28,0.94c0,0.48,0.15,0.86,0.44,1.14c0.3,0.28,0.74,0.42,1.33,0.42h10.94c0.59,0,1.05-0.14,1.36-0.42
		c0.31-0.28,0.47-0.66,0.47-1.14c0-0.41-0.1-0.72-0.31-0.94c-0.2-0.22-0.6-0.41-1.19-0.56l-3.44-0.78v-15.83
		c0.78-1.15,1.6-1.97,2.47-2.47c0.87-0.5,1.75-0.75,2.64-0.75c0.26,0,0.48,0.04,0.67,0.11c0.19,0.07,0.36,0.14,0.53,0.19
		c0.17,0.06,0.33,0.11,0.5,0.17c0.17,0.06,0.36,0.08,0.58,0.08c0.26,0,0.51-0.07,0.75-0.22c0.24-0.15,0.47-0.36,0.69-0.64
		c0.22-0.28,0.4-0.63,0.53-1.05c0.13-0.42,0.19-0.9,0.19-1.42c0-0.7-0.2-1.27-0.61-1.69C247.46,238.85,246.81,238.63,245.93,238.63z
		"/>
</g>
<g>
	<path class="st1" d="M263.31,263.51l-2.83-0.72v-20.55c0-1.22-0.22-2.06-0.67-2.53c-0.44-0.46-1.31-0.69-2.61-0.69
		c-0.89,0-1.77,0.05-2.64,0.17c-0.87,0.11-1.62,0.24-2.25,0.39c-0.63,0.19-1.05,0.4-1.28,0.64c-0.22,0.24-0.33,0.58-0.33,1.03
		c0,0.41,0.1,0.72,0.31,0.94c0.2,0.22,0.6,0.39,1.19,0.5l3.28,0.5v19.6l-3.11,0.78c-0.63,0.15-1.04,0.33-1.22,0.56
		c-0.19,0.22-0.28,0.54-0.28,0.94c0,0.48,0.15,0.86,0.44,1.14c0.3,0.28,0.74,0.42,1.33,0.42h10.27c0.59,0,1.05-0.15,1.36-0.44
		c0.31-0.3,0.47-0.68,0.47-1.17c0-0.37-0.1-0.68-0.31-0.92C264.24,263.85,263.86,263.66,263.31,263.51z"/>
</g>
<g>
	<path class="st1" d="M257.81,234.47c1,0,1.83-0.34,2.5-1.03c0.67-0.68,1-1.53,1-2.53s-0.32-1.82-0.97-2.47
		c-0.65-0.65-1.47-0.97-2.47-0.97c-1,0-1.83,0.34-2.5,1.03c-0.67,0.69-1,1.53-1,2.53c0,1,0.32,1.82,0.97,2.47
		C255.98,234.14,256.81,234.47,257.81,234.47z"/>
</g>
<g>
	<path class="st1" d="M282.96,262.68c-0.37,0-0.8,0.07-1.28,0.22c-0.48,0.15-1.13,0.22-1.94,0.22c-1.19,0-2.05-0.35-2.58-1.05
		c-0.54-0.7-0.81-1.94-0.81-3.71V242.8h5.33c0.74,0,1.3-0.18,1.67-0.53c0.37-0.35,0.56-0.84,0.56-1.47c0-1-0.61-1.5-1.83-1.5h-5.72
		v-5.78c0-0.52-0.14-0.92-0.42-1.19c-0.28-0.28-0.69-0.42-1.25-0.42c-0.67,0-1.19,0.22-1.55,0.67c-0.37,0.44-0.67,1.28-0.89,2.5
		l-0.83,4.22h-2.28c-0.74,0-1.3,0.18-1.67,0.53c-0.37,0.35-0.56,0.82-0.56,1.42c0,1.04,0.61,1.55,1.83,1.55h2.67v17.1
		c0,2.18,0.48,3.9,1.44,5.14c0.96,1.24,2.65,1.86,5.05,1.86c1.74,0,3.05-0.21,3.92-0.64c0.87-0.42,1.42-0.75,1.64-0.97
		c0.22-0.22,0.39-0.44,0.5-0.67c0.11-0.22,0.17-0.46,0.17-0.72c0-0.37-0.1-0.67-0.31-0.89
		C283.62,262.79,283.33,262.68,282.96,262.68z"/>
</g>
<g>
	<path class="st1" d="M301.79,262.68c-0.37,0-0.8,0.07-1.28,0.22c-0.48,0.15-1.13,0.22-1.94,0.22c-1.19,0-2.05-0.35-2.58-1.05
		c-0.54-0.7-0.81-1.94-0.81-3.71V242.8h5.33c0.74,0,1.3-0.18,1.67-0.53c0.37-0.35,0.56-0.84,0.56-1.47c0-1-0.61-1.5-1.83-1.5h-5.72
		v-5.78c0-0.52-0.14-0.92-0.42-1.19c-0.28-0.28-0.69-0.42-1.25-0.42c-0.67,0-1.19,0.22-1.55,0.67c-0.37,0.44-0.67,1.28-0.89,2.5
		l-0.83,4.22h-2.28c-0.74,0-1.3,0.18-1.67,0.53c-0.37,0.35-0.56,0.82-0.56,1.42c0,1.04,0.61,1.55,1.83,1.55h2.67v17.1
		c0,2.18,0.48,3.9,1.44,5.14c0.96,1.24,2.65,1.86,5.05,1.86c1.74,0,3.05-0.21,3.92-0.64c0.87-0.42,1.42-0.75,1.64-0.97
		c0.22-0.22,0.39-0.44,0.5-0.67c0.11-0.22,0.17-0.46,0.17-0.72c0-0.37-0.1-0.67-0.31-0.89
		C302.44,262.79,302.16,262.68,301.79,262.68z"/>
</g>
<g>
	<path class="st1" d="M330.77,263.18l-2.83-0.33c-0.15-2.78-0.19-5.36-0.14-7.75c0.06-2.39,0.08-4.73,0.08-7.03
		c0-3.18-0.76-5.52-2.28-7.02c-1.52-1.5-3.98-2.25-7.39-2.25c-1.22,0-2.37,0.09-3.44,0.28c-1.07,0.19-2.05,0.41-2.92,0.67
		c-0.87,0.26-1.61,0.54-2.22,0.83c-0.61,0.3-1.05,0.57-1.31,0.83c-0.33,0.37-0.5,0.76-0.5,1.17c0,0.44,0.13,0.8,0.39,1.05
		c0.26,0.26,0.61,0.39,1.05,0.39c0.3,0,0.64-0.07,1.03-0.22c0.39-0.15,0.88-0.31,1.47-0.5c0.59-0.18,1.29-0.35,2.11-0.5
		c0.81-0.15,1.8-0.22,2.94-0.22c2.11,0,3.66,0.53,4.64,1.58c0.98,1.05,1.47,2.82,1.47,5.3v3.33c-0.48-0.07-1-0.15-1.55-0.22
		c-0.48-0.07-1.05-0.14-1.69-0.19c-0.65-0.06-1.38-0.08-2.19-0.08c-1.93,0-3.59,0.19-5,0.56c-1.41,0.37-2.58,0.87-3.53,1.5
		c-0.94,0.63-1.65,1.38-2.11,2.25c-0.46,0.87-0.69,1.82-0.69,2.86c0,1.07,0.2,2.07,0.61,3c0.41,0.93,0.99,1.74,1.75,2.44
		c0.76,0.7,1.68,1.25,2.78,1.64c1.09,0.39,2.3,0.58,3.64,0.58c1.52,0,2.79-0.19,3.83-0.58c1.04-0.39,1.87-0.84,2.5-1.36
		c0.74-0.59,1.35-1.28,1.83-2.05l0.11,0.05v0.72c0,1,0.24,1.75,0.72,2.25c0.48,0.5,1.26,0.75,2.33,0.75c0.81,0,1.62-0.06,2.42-0.19
		c0.8-0.13,1.49-0.29,2.08-0.47c0.56-0.18,0.95-0.4,1.19-0.64c0.24-0.24,0.36-0.58,0.36-1.03c0-0.41-0.12-0.72-0.36-0.94
		C331.73,263.4,331.33,263.25,330.77,263.18z M322.83,260.46c-0.48,0.56-1.04,1.04-1.67,1.44c-0.52,0.37-1.18,0.7-1.97,1
		c-0.8,0.3-1.69,0.44-2.69,0.44c-1.59,0-2.84-0.42-3.75-1.25c-0.91-0.83-1.36-1.84-1.36-3.03c0-1.18,0.54-2.09,1.61-2.72
		c1.07-0.63,2.76-0.94,5.05-0.94c0.67,0,1.3,0.03,1.89,0.08c0.59,0.06,1.11,0.1,1.55,0.14c0.48,0.11,0.92,0.2,1.33,0.28V260.46z"/>
</g>
<g>
	<path class="st2" d="M195.67,298.35v-20.56h12.6v20.19c0,5.71,2.19,7.85,5.71,7.85c3.52,0,5.71-2.14,5.71-7.85v-20.19h12.39v20.56
		c0,11.21-6.73,17.67-18.21,17.67C202.4,316.02,195.67,309.56,195.67,298.35z"/>
	<path class="st2" d="M260.98,315.17l-6.46-9.99l-6.3,9.99h-14.37l13.51-18.85l-13.03-18.53h14.15l6.35,9.4l6.19-9.4h13.56
		l-12.98,18.05l13.78,19.33H260.98z"/>
	<path class="st2" d="M294.05,277.79h18.42c12.5,0,21.09,7.1,21.09,18.69s-8.6,18.69-21.09,18.69h-18.42V277.79z M311.94,305.34
		c5.29,0,8.92-3.15,8.92-8.86c0-5.71-3.63-8.86-8.92-8.86h-5.29v17.73H311.94z"/>
	<path class="st2" d="M369.24,305.66v9.51h-31.08v-37.38h30.38v9.51h-17.99v4.38h15.81v9.08h-15.81v4.91H369.24z"/>
	<path class="st2" d="M452.62,295.46h10.95v15.81c-4.54,3.1-10.79,4.75-16.29,4.75c-12.07,0-20.88-8.06-20.88-19.54
		s8.81-19.54,21.15-19.54c7.37,0,13.3,2.56,17.09,7.21l-8.06,7.1c-2.35-2.72-5.07-4.11-8.38-4.11c-5.55,0-9.08,3.58-9.08,9.35
		c0,5.61,3.53,9.35,8.92,9.35c1.55,0,3.04-0.27,4.59-0.91V295.46z"/>
	<path class="st2" d="M505.81,277.79v37.38h-10.36l-14.21-16.98v16.98h-12.28v-37.38h10.36l14.21,16.98v-16.98H505.81z"/>
</g>
<g>
	<path class="st3" d="M393.69,283.23c-2.32,0-4.39-0.25-6.13-0.73c-1.85-0.52-3.42-1.25-4.69-2.2c-0.77-0.58-1.43-1.23-1.99-1.95
		c-5.68,2.1-8.54,6.32-8.54,11.18c0,13.94,20.67,10.15,20.67,14.85c0,1.28-1.28,2.03-4.86,2.03c-4.11,0-8.81-1.34-12.34-3.42
		l-4.06,9.18c3.74,2.3,10.04,3.84,16.29,3.84c11.59,0,17.41-5.77,17.41-12.6c0-13.78-20.67-10.04-20.67-14.52
		c0-1.28,1.18-2.35,4.86-2.35c3.26,0,6.73,0.91,10.41,2.78l3.42-8.24c-0.85,0.42-1.76,0.8-2.75,1.12
		C398.65,282.89,396.28,283.23,393.69,283.23z"/>
</g>
<path class="st3" d="M411.75,280.3c-0.97-0.73-1.77-1.57-2.4-2.52h-0.15v37.38h12.6v-31.98c-2-0.05-3.82-0.26-5.36-0.69
	C414.59,281.98,413.01,281.25,411.75,280.3z"/>
</svg>
