<svg xmlns="http://www.w3.org/2000/svg" viewBox="0 0 245.19 70"><defs><style>.cls-1{fill:#b61a82;}.cls-2{fill:#595957;}</style></defs><g id="Ebene_2" data-name="Ebene 2"><g id="Ebene_1-2" data-name="Ebene 1"><path class="cls-1" d="M143.53,24.67a1.54,1.54,0,0,0-.35-1,1.19,1.19,0,0,0-.84-.28,1.24,1.24,0,0,0-.81.27,1.86,1.86,0,0,0-.55,1l-.83,3.37H129.7V17.26h7.86l.53,1.84a3,3,0,0,0,.54,1,1,1,0,0,0,.82.31,1,1,0,0,0,.81-.33,1.48,1.48,0,0,0,.29-1V12.74a1.48,1.48,0,0,0-.29-1,1,1,0,0,0-.81-.33,1.12,1.12,0,0,0-.82.28,2.8,2.8,0,0,0-.54,1l-.53,1.8H129.7V4.31h10l.79,3.14a2,2,0,0,0,.54,1,1.25,1.25,0,0,0,.82.27,1.19,1.19,0,0,0,.81-.28,1.38,1.38,0,0,0,.37-1c0-.55,0-1,0-1.36V4.44A12.79,12.79,0,0,0,143,2.81a1.48,1.48,0,0,0-.4-.83,1.81,1.81,0,0,0-.66-.41,2.78,2.78,0,0,0-1.05-.15H123.15a1.35,1.35,0,0,0-1,.3,1,1,0,0,0-.31.73,1.32,1.32,0,0,0,.29.89,2.2,2.2,0,0,0,1.07.53l2.41.56V27.92l-2.59.61a1.9,1.9,0,0,0-.94.45,1.28,1.28,0,0,0,.1,1.64,1.5,1.5,0,0,0,1,.33h18.09a3,3,0,0,0,1-.15,2,2,0,0,0,.66-.42,1.47,1.47,0,0,0,.39-.83,10.52,10.52,0,0,0,.09-1.62V26c0-.19,0-.39,0-.61Z"/><path class="cls-1" d="M189.35,8.76a4.23,4.23,0,0,0,.84-.75,1.35,1.35,0,0,0,.31-.9,1.29,1.29,0,0,0-.44-1.1,1.76,1.76,0,0,0-1.22-.44,3,3,0,0,0-2.07,1.1,26.81,26.81,0,0,0-2.32,2.9l-.92-.31-1.19-.2A10.38,10.38,0,0,0,180.81,9a11.18,11.18,0,0,0-3.87.62,8.61,8.61,0,0,0-2.88,1.66,7.32,7.32,0,0,0-1.78,2.51,8,8,0,0,0-.61,3.16,6.57,6.57,0,0,0,.83,3.4,5.91,5.91,0,0,0,2.06,2.17l-.53.4a4.7,4.7,0,0,0-.79.81,5.92,5.92,0,0,0-.7,1.19,3.65,3.65,0,0,0-.31,1.56,3.46,3.46,0,0,0,.48,1.86,4.2,4.2,0,0,0,1.1,1.21c-.12.06-.37.22-.77.48a6.2,6.2,0,0,0-1.21,1.13,8.37,8.37,0,0,0-1.12,1.75,5.45,5.45,0,0,0-.5,2.44,5.57,5.57,0,0,0,.53,2.41,5,5,0,0,0,1.64,2A8.47,8.47,0,0,0,175.23,41a17.37,17.37,0,0,0,8.91-.19,11.39,11.39,0,0,0,3.5-1.78,7.62,7.62,0,0,0,2.12-2.52,6.44,6.44,0,0,0,.73-2.92,5.2,5.2,0,0,0-1.84-4.13c-1.23-1.05-3.27-1.58-6.1-1.58h-2.2a12.55,12.55,0,0,1-2.33-.17,5.27,5.27,0,0,1-1.47-.48,1.66,1.66,0,0,1-.74-.77,2.54,2.54,0,0,1-.2-1,3.35,3.35,0,0,1,.11-.9,1.71,1.71,0,0,1,.34-.64,1.73,1.73,0,0,1,.44-.53c.26.05.57.13.92.22s.64.11,1,.15a10.44,10.44,0,0,0,1.29.06,11.43,11.43,0,0,0,3.87-.61,8.63,8.63,0,0,0,2.88-1.67,7.06,7.06,0,0,0,1.78-2.5,8,8,0,0,0,.61-3.16,6.8,6.8,0,0,0-.65-3.08,6.55,6.55,0,0,0-1.58-2,11.17,11.17,0,0,1,1.49-1.21C188.59,9.29,189,9,189.35,8.76ZM176,30.38a8.94,8.94,0,0,0,.88.26c.32.06.7.11,1.13.15a14.78,14.78,0,0,0,1.59.06h2.11a6.24,6.24,0,0,1,3.81.86,2.93,2.93,0,0,1,1.06,2.43A4,4,0,0,1,185,37.3a7.49,7.49,0,0,1-4.87,1.32c-2.13,0-3.66-.38-4.58-1.16a3.81,3.81,0,0,1-1.38-3.1,4.82,4.82,0,0,1,.26-1.66,4,4,0,0,1,.65-1.23A5.37,5.37,0,0,1,176,30.38Zm7.64-10.6A4.53,4.53,0,0,1,180.29,21a4.37,4.37,0,0,1-4.67-4.66A4.42,4.42,0,0,1,176.85,13a4.49,4.49,0,0,1,3.32-1.21,4.37,4.37,0,0,1,4.67,4.66A4.44,4.44,0,0,1,183.61,19.78Z"/><path class="cls-1" d="M166.53,8.76a4.23,4.23,0,0,0,.84-.75,1.4,1.4,0,0,0,.31-.9,1.29,1.29,0,0,0-.44-1.1A1.76,1.76,0,0,0,166,5.57,3,3,0,0,0,164,6.67a25.65,25.65,0,0,0-2.32,2.9l-.93-.31-1.18-.2A10.42,10.42,0,0,0,158,9a11.13,11.13,0,0,0-3.86.62,8.61,8.61,0,0,0-2.88,1.66,7.19,7.19,0,0,0-1.78,2.51,8,8,0,0,0-.61,3.16,6.57,6.57,0,0,0,.83,3.4,5.91,5.91,0,0,0,2.06,2.17l-.53.4a4.7,4.7,0,0,0-.79.81,5.92,5.92,0,0,0-.7,1.19,3.65,3.65,0,0,0-.31,1.56,3.46,3.46,0,0,0,.48,1.86A4.06,4.06,0,0,0,151,29.5c-.12.06-.37.22-.77.48A6.2,6.2,0,0,0,149,31.11a8.37,8.37,0,0,0-1.12,1.75,5.45,5.45,0,0,0-.51,2.44,5.72,5.72,0,0,0,.53,2.41,5,5,0,0,0,1.41,1.74,2.73,2.73,0,0,0,.25.23A8.38,8.38,0,0,0,152.42,41a15.24,15.24,0,0,0,4.15.49,15.4,15.4,0,0,0,4.76-.68c.25-.08.46-.2.7-.29A10.67,10.67,0,0,0,164.82,39,7.66,7.66,0,0,0,167,36.51a6.44,6.44,0,0,0,.73-2.92,5.18,5.18,0,0,0-1.85-4.13c-1.22-1.05-3.26-1.58-6.1-1.58h-2.2a12.44,12.44,0,0,1-2.32-.17,5.06,5.06,0,0,1-1.47-.48,1.61,1.61,0,0,1-.74-.77,2.37,2.37,0,0,1-.2-1,3.35,3.35,0,0,1,.11-.9,1.69,1.69,0,0,1,.33-.64,1.89,1.89,0,0,1,.44-.53c.26.05.57.13.93.22s.64.11,1,.15a10.61,10.61,0,0,0,1.3.06,11.47,11.47,0,0,0,3.87-.61,8.58,8.58,0,0,0,2.87-1.67,6.94,6.94,0,0,0,1.78-2.5,8,8,0,0,0,.62-3.16,6.67,6.67,0,0,0-.66-3.08,6.27,6.27,0,0,0-1.58-2,11.21,11.21,0,0,1,1.5-1.21ZM153.14,30.38a8.94,8.94,0,0,0,.88.26c.32.06.7.11,1.13.15a14.78,14.78,0,0,0,1.59.06h2.11a6.24,6.24,0,0,1,3.81.86,2.93,2.93,0,0,1,1.06,2.43,4,4,0,0,1-1.59,3.16,7.49,7.49,0,0,1-4.87,1.32c-2.13,0-3.66-.38-4.58-1.16a3.81,3.81,0,0,1-1.38-3.1,4.82,4.82,0,0,1,.26-1.66,4,4,0,0,1,.65-1.23A6.09,6.09,0,0,1,153.14,30.38Zm7.64-10.6A4.53,4.53,0,0,1,157.46,21a4.37,4.37,0,0,1-4.67-4.66A4.42,4.42,0,0,1,154,13a4.49,4.49,0,0,1,3.32-1.21A4.37,4.37,0,0,1,162,16.47,4.44,4.44,0,0,1,160.78,19.78Z"/><path class="cls-1" d="M203.49,8.91a9.69,9.69,0,0,0-4,.84,10,10,0,0,0-3.25,2.32,10.73,10.73,0,0,0-2.17,3.67,14.17,14.17,0,0,0-.79,4.89,13.48,13.48,0,0,0,.72,4.59,9.58,9.58,0,0,0,2,3.36,8.7,8.7,0,0,0,3.23,2.08,11.79,11.79,0,0,0,4.28.73,14,14,0,0,0,4.41-.59,6.68,6.68,0,0,0,2.31-1.16,1.77,1.77,0,0,0,.37-.51,1.35,1.35,0,0,0,.11-.55,1.09,1.09,0,0,0-.26-.76,1,1,0,0,0-.79-.29,2.28,2.28,0,0,0-.71.14L208,28a10.45,10.45,0,0,1-1.36.3,11.84,11.84,0,0,1-2,.14,7,7,0,0,1-5.31-2,8.7,8.7,0,0,1-2.08-6h11.9a2.37,2.37,0,0,0,1.8-.64,2.7,2.7,0,0,0,.61-1.95c0-2.87-.72-5.07-2.19-6.61A7.74,7.74,0,0,0,203.49,8.91Zm24.76-.09a5.13,5.13,0,0,0-1.78.31,7.16,7.16,0,0,0-1.6.83,7.08,7.08,0,0,0-1.36,1.27,7.87,7.87,0,0,0-1,1.67l-.09-.05V11.53a2.73,2.73,0,0,0-.5-1.89A2.72,2.72,0,0,0,220,9.11a13.19,13.19,0,0,0-1.93.14,17.71,17.71,0,0,0-1.75.31,2.34,2.34,0,0,0-1,.5,1.14,1.14,0,0,0-.26.82,1,1,0,0,0,.24.74,1.8,1.8,0,0,0,.94.4l2.59.39v15.5l-2.45.61a1.82,1.82,0,0,0-1,.44,1.14,1.14,0,0,0-.22.75,1.19,1.19,0,0,0,.35.9,1.49,1.49,0,0,0,1.05.33h8.65a1.56,1.56,0,0,0,1.07-.33,1.13,1.13,0,0,0,.37-.9,1,1,0,0,0-.24-.75,2,2,0,0,0-.94-.44l-2.72-.61V15.39a6.11,6.11,0,0,1,1.95-2,4.12,4.12,0,0,1,2.09-.59,1.69,1.69,0,0,1,.53.08,4.29,4.29,0,0,0,.42.15l.39.14a1.65,1.65,0,0,0,.46.06,1.06,1.06,0,0,0,.59-.17,2.17,2.17,0,0,0,.55-.51,2.59,2.59,0,0,0,.42-.83,3.89,3.89,0,0,0,.15-1.12,1.85,1.85,0,0,0-.48-1.34A2.18,2.18,0,0,0,228.25,8.82ZM245,28.09a.9.9,0,0,0-.68-.26,3.43,3.43,0,0,0-1,.18,5.37,5.37,0,0,1-1.54.17,2.38,2.38,0,0,1-2-.83,5,5,0,0,1-.64-2.93V12.12h4.22a1.87,1.87,0,0,0,1.32-.42,1.53,1.53,0,0,0,.44-1.16c0-.79-.48-1.19-1.45-1.19h-4.52V4.78a1.27,1.27,0,0,0-.33-.94,1.34,1.34,0,0,0-1-.33,1.45,1.45,0,0,0-1.22.53,4.47,4.47,0,0,0-.71,2l-.65,3.33h-1.81a1.87,1.87,0,0,0-1.32.42,1.48,1.48,0,0,0-.44,1.12c0,.83.48,1.23,1.45,1.23h2.11V25.64a6.49,6.49,0,0,0,1.14,4.06q1.14,1.47,4,1.47a7.31,7.31,0,0,0,3.1-.51,5.54,5.54,0,0,0,1.29-.76,2.05,2.05,0,0,0,.4-.53,1.25,1.25,0,0,0,.13-.57A1,1,0,0,0,245,28.09ZM197.43,18a8.06,8.06,0,0,1,1.76-4.51,4.74,4.74,0,0,1,3.73-1.68,4.29,4.29,0,0,1,3.35,1.53A7.26,7.26,0,0,1,207.71,18Z"/><path class="cls-1" d="M16.67,15.15v0a7.3,7.3,0,0,0,3.83-2.33,6.45,6.45,0,0,0,1.37-4.26,7.12,7.12,0,0,0-.57-2.88,5.58,5.58,0,0,0-1.81-2.23,8.84,8.84,0,0,0-3.21-1.47,18.48,18.48,0,0,0-4.75-.53H1.28a1.33,1.33,0,0,0-1,.3A1,1,0,0,0,0,2.44a1.32,1.32,0,0,0,.28.89,2.33,2.33,0,0,0,1.08.54l2.41.56V27.91l-2.59.61A1.85,1.85,0,0,0,.25,29a1.16,1.16,0,0,0-.25.76,1.18,1.18,0,0,0,.35.89,1.52,1.52,0,0,0,1,.32h9.42a19.14,19.14,0,0,0,5.43-.7,11.33,11.33,0,0,0,3.84-1.92,7.76,7.76,0,0,0,2.27-2.85,8.16,8.16,0,0,0,.77-3.53,6.41,6.41,0,0,0-1.71-4.61A7.56,7.56,0,0,0,16.67,15.15ZM7.83,4.26H11q3.63,0,5.15,1.31a4.57,4.57,0,0,1,1.52,3.68A4.64,4.64,0,0,1,16.09,13Q14.51,14.32,11,14.32H7.83ZM17.22,26.6c-1.16,1-3.07,1.49-5.75,1.49H7.84V17h3.58a14.07,14.07,0,0,1,3.52.37,6.48,6.48,0,0,1,2.32,1.06,3.8,3.8,0,0,1,1.29,1.72,6.53,6.53,0,0,1,.39,2.32A5.18,5.18,0,0,1,17.22,26.6Z"/><path class="cls-1" d="M39.75,8.82A5.08,5.08,0,0,0,38,9.13a6.69,6.69,0,0,0-3,2.1,7.87,7.87,0,0,0-1,1.67l-.09-.05V11.53a2.73,2.73,0,0,0-.5-1.89,2.7,2.7,0,0,0-1.92-.53,13,13,0,0,0-1.92.14,17.44,17.44,0,0,0-1.76.31,2.34,2.34,0,0,0-1,.5,1.14,1.14,0,0,0-.26.82,1,1,0,0,0,.24.74,1.8,1.8,0,0,0,.94.4l2.6.39v15.5l-2.46.61a1.86,1.86,0,0,0-1,.44,1.14,1.14,0,0,0-.22.75,1.19,1.19,0,0,0,.35.9,1.5,1.5,0,0,0,1.05.33h8.65a1.54,1.54,0,0,0,1.07-.33,1.14,1.14,0,0,0,.38-.9,1,1,0,0,0-.25-.75,2,2,0,0,0-.94-.44l-2.72-.61V15.39a6.21,6.21,0,0,1,2-2,4.12,4.12,0,0,1,2.09-.59,1.64,1.64,0,0,1,.53.08l.42.15.39.14a1.65,1.65,0,0,0,.46.06,1.09,1.09,0,0,0,.6-.17,2.14,2.14,0,0,0,.54-.51,2.4,2.4,0,0,0,.42-.83,3.89,3.89,0,0,0,.15-1.12,1.85,1.85,0,0,0-.48-1.34A2.18,2.18,0,0,0,39.75,8.82Z"/><path class="cls-1" d="M53.49,28.49l-2.23-.57V11.68a2.91,2.91,0,0,0-.53-2,2.87,2.87,0,0,0-2.07-.55,15.91,15.91,0,0,0-2.08.13,17.42,17.42,0,0,0-1.78.31,2.33,2.33,0,0,0-1,.51,1.13,1.13,0,0,0-.26.81,1,1,0,0,0,.24.75,1.81,1.81,0,0,0,.94.39l2.59.4V27.92l-2.45.62a1.82,1.82,0,0,0-1,.44,1.11,1.11,0,0,0-.22.74,1.19,1.19,0,0,0,.35.9,1.44,1.44,0,0,0,1.05.34h8.12a1.51,1.51,0,0,0,1.07-.35,1.21,1.21,0,0,0,.37-.93,1,1,0,0,0-.24-.72A1.63,1.63,0,0,0,53.49,28.49Z"/><path class="cls-1" d="M49.15,5.53a2.64,2.64,0,0,0,2-.81,2.75,2.75,0,0,0,.79-2A2.74,2.74,0,0,0,47.22.81a2.76,2.76,0,0,0-.79,2,2.68,2.68,0,0,0,.76,2A2.7,2.7,0,0,0,49.15,5.53Z"/><path class="cls-1" d="M69,27.83A3.43,3.43,0,0,0,68,28a5.37,5.37,0,0,1-1.54.17,2.38,2.38,0,0,1-2-.83,5,5,0,0,1-.64-2.93V12.12H68a1.87,1.87,0,0,0,1.32-.42,1.53,1.53,0,0,0,.44-1.16c0-.79-.48-1.19-1.45-1.19H63.81V4.78a1.27,1.27,0,0,0-.33-.94,1.34,1.34,0,0,0-1-.33A1.48,1.48,0,0,0,61.26,4a4.62,4.62,0,0,0-.7,2l-.65,3.33H58.1a1.87,1.87,0,0,0-1.32.42,1.48,1.48,0,0,0-.44,1.12c0,.83.48,1.23,1.45,1.23H59.9V25.64A6.49,6.49,0,0,0,61,29.7c.75,1,2.09,1.47,4,1.47a7.31,7.31,0,0,0,3.1-.51,5.78,5.78,0,0,0,1.29-.76,2.05,2.05,0,0,0,.4-.53A1.25,1.25,0,0,0,70,28.8a1,1,0,0,0-.24-.71A.9.9,0,0,0,69,27.83Z"/><path class="cls-1" d="M83.91,27.83a3.43,3.43,0,0,0-1,.18,5.29,5.29,0,0,1-1.53.17,2.38,2.38,0,0,1-2-.83,4.94,4.94,0,0,1-.64-2.93V12.12H82.9a1.84,1.84,0,0,0,1.32-.42,1.53,1.53,0,0,0,.44-1.16c0-.79-.48-1.19-1.44-1.19H78.7V4.78a1.27,1.27,0,0,0-.34-.94,1.32,1.32,0,0,0-1-.33A1.47,1.47,0,0,0,76.15,4a4.49,4.49,0,0,0-.7,2l-.66,3.33H73a1.84,1.84,0,0,0-1.32.42,1.48,1.48,0,0,0-.44,1.12c0,.83.48,1.23,1.44,1.23h2.11V25.64a6.49,6.49,0,0,0,1.14,4.06c.76,1,2.1,1.47,4,1.47a7.28,7.28,0,0,0,3.1-.51,5.94,5.94,0,0,0,1.3-.76,2,2,0,0,0,.39-.53,1.26,1.26,0,0,0,.14-.57,1,1,0,0,0-.25-.71A.88.88,0,0,0,83.91,27.83Z"/><path class="cls-1" d="M106.82,28.23,104.58,28q-.17-3.3-.11-6.13c0-1.89.07-3.74.07-5.56q0-3.77-1.8-5.54C101.53,9.55,99.59,9,96.89,9a15.69,15.69,0,0,0-2.72.22,19.65,19.65,0,0,0-2.3.53,11.58,11.58,0,0,0-1.76.65,3.9,3.9,0,0,0-1,.66,1.34,1.34,0,0,0-.4.92,1.08,1.08,0,0,0,.31.83,1.09,1.09,0,0,0,.83.31,2.22,2.22,0,0,0,.81-.17c.31-.12.7-.25,1.16-.4a16.15,16.15,0,0,1,1.67-.39,13,13,0,0,1,2.33-.18,4.79,4.79,0,0,1,3.66,1.25c.78.83,1.17,2.23,1.17,4.19V20l-1.23-.18c-.38-.05-.83-.11-1.33-.15s-1.1-.06-1.74-.06a15.82,15.82,0,0,0-3.95.44,9.2,9.2,0,0,0-2.79,1.19A5,5,0,0,0,87.91,23a4.74,4.74,0,0,0-.54,2.26,5.91,5.91,0,0,0,.48,2.37,5.81,5.81,0,0,0,1.38,1.93,6.37,6.37,0,0,0,2.2,1.29,8.45,8.45,0,0,0,2.88.46,8.66,8.66,0,0,0,3-.46,7,7,0,0,0,2-1.07,6.35,6.35,0,0,0,1.45-1.62l.09,0v.57a2.49,2.49,0,0,0,.56,1.77,2.46,2.46,0,0,0,1.85.6,12.2,12.2,0,0,0,1.91-.15,14.07,14.07,0,0,0,1.64-.37,2.3,2.3,0,0,0,.94-.51,1.1,1.1,0,0,0,.29-.81,1,1,0,0,0-.29-.75A1.47,1.47,0,0,0,106.82,28.23Zm-6.27-2.15a6.26,6.26,0,0,1-1.32,1.14,7.54,7.54,0,0,1-1.56.79,6,6,0,0,1-2.13.35,4.25,4.25,0,0,1-3-1A3.14,3.14,0,0,1,91.5,25a2.38,2.38,0,0,1,1.27-2.15,8.2,8.2,0,0,1,4-.74c.53,0,1,0,1.49.06l1.23.11c.38.09.72.16,1.05.22v3.61Z"/><path class="cls-2" d="M0,56V39.78H10v16c0,4.51,1.74,6.2,4.52,6.2S19,60.25,19,55.74v-16h9.8V56c0,8.86-5.32,14-14.4,14S0,64.89,0,56Z"/><path class="cls-2" d="M51.65,69.33l-5.1-7.9-5,7.9H30.21l10.68-14.9L30.58,39.78H41.77l5,7.43,4.89-7.43H62.4L52.14,54.05,63,69.33Z"/><path class="cls-2" d="M77.79,39.78H92.36c9.88,0,16.67,5.61,16.67,14.77s-6.8,14.78-16.67,14.78H77.79ZM91.94,61.56c4.18,0,7-2.49,7-7s-2.87-7-7-7H87.75v14h4.19Z"/><path class="cls-2" d="M137.23,61.81v7.52H112.66V39.78h24V47.3H122.46v3.46H135v7.18h-12.5v3.88h14.77Z"/><path class="cls-2" d="M203.15,53.75h8.65v12.5A23.87,23.87,0,0,1,198.92,70c-9.54,0-16.5-6.37-16.5-15.45s7-15.44,16.72-15.44c5.82,0,10.51,2,13.51,5.7l-6.37,5.61a8.44,8.44,0,0,0-6.63-3.25c-4.39,0-7.18,2.83-7.18,7.39S195.26,62,199.53,62a9.17,9.17,0,0,0,3.62-.72V53.75Z"/><path class="cls-2" d="M245.19,39.78V69.33H237L225.77,55.91V69.33h-9.71V39.78h8.19L235.49,53.2V39.78Z"/><path class="cls-2" d="M156.56,44.08a18.34,18.34,0,0,1-4.84-.58A11.1,11.1,0,0,1,148,41.76a8.55,8.55,0,0,1-1.58-1.54c-4.49,1.66-6.75,5-6.75,8.84,0,11,16.34,8,16.34,11.74,0,1-1,1.6-3.84,1.6a20.35,20.35,0,0,1-9.75-2.7L139.22,67c2.95,1.81,7.93,3,12.87,3,9.17,0,13.77-4.56,13.77-10,0-10.89-16.34-7.94-16.34-11.48,0-1,.93-1.85,3.84-1.85a18.16,18.16,0,0,1,8.23,2.19l2.7-6.51a15.84,15.84,0,0,1-2.17.88A17.51,17.51,0,0,1,156.56,44.08Z"/><path class="cls-2" d="M170.84,41.76a8,8,0,0,1-1.9-2h-.12V69.32h10V44a17.58,17.58,0,0,1-4.23-.55A10.81,10.81,0,0,1,170.84,41.76Z"/></g></g></svg>